#N canvas 1388 135 1015 954 10;
#X obj 176 49 bng 15 250 50 0 empty empty empty 17 7 0 10 -262144 -1
-1;
#X obj 615 129 timer;
#X obj 536 78 loadbang;
#X obj 615 93 t b b;
#X obj 615 206 list;
#X obj 615 269 t l l;
#X msg 657 182 list 0 0 0 0;
#X obj 615 238 list split 4;
#X obj 615 160 float;
#X obj 615 298 unpack f f f f;
#X obj 615 324 +;
#X obj 669 326 +;
#X obj 615 355 +;
#X obj 615 383 / 4;
#X floatatom 669 408 10 0 0 0 - - -;
#X obj 657 157 loadbang;
#X obj 176 82 s inclick;
#X obj 615 66 r inclick;
#X obj 179 233 metro 100;
#X obj 179 205 tgl 15 0 empty empty empty 17 7 0 10 -262144 -1 -1 1
1;
#X obj 179 148 loadbang;
#X msg 179 177 1;
#X obj 179 283 f 0;
#X obj 129 316 +;
#X msg 124 284 0.1;
#X floatatom 240 377 6 0 0 0 - - -;
#N canvas 0 22 450 278 (subpatch) 0;
#X array hatbeat 64 float 3;
#A 0 0.0571423 0.0571423 0.0785713 0.78573 0.50001 0.0571423 0.0571423
0.0571423 0.0571423 0.0642853 0.314291 0.0571423 0.0571423 0.350006
0.907162 0.78573 0.792873 0.0571423 0.0571423 0.0571423 0.0571423 0.0571423
0.0571423 0.342863 0.0571423 0.0571423 0.771444 0.821445 0.0571423
0.0571423 0.0571423 0.0571423 0.807159 0.778587 0.0571423 0.0571423
0.0571423 0.0571423 0.885733 0.40715 0.19286 0.0571423 0.0571423 0.0571423
0.0571423 0.850018 0.171431 0.0571423 0.0571423 0.0571423 0.0571423
0.828588 0.0571423 0.0571423 0.0571423 0.0571423 0.814302 0.292862
0.0571423 0.821445 0.607155 0.0571423 0.0571423 0.0571423;
#X coords 0 1 63 0 200 140 1 0 0;
#X restore 22 548 graph;
#X obj 88 229 r inclick;
#X obj 374 637 tabread hatbeat;
#X obj 179 427 > 0.2;
#X obj 185 492 s move;
#X obj 540 397 r move;
#X obj 539 436 tgl 15 0 empty empty empty 17 7 0 10 -262144 -1 -1 0
1;
#X obj 561 517 bng 15 250 50 0 empty empty empty 17 7 0 10 -262144
-1 -1;
#X obj 562 476 metro 1000;
#X obj 176 456 change;
#X obj 519 575 f 0;
#X floatatom 504 635 5 0 0 0 - - -;
#X msg 508 509 0;
#X obj 566 576 + 1;
#X obj 496 469 sel 0;
#X obj 84 430 s intensity;
#X obj 391 665 r intensity;
#X obj 375 705 *;
#X obj 375 759 t i b;
#X obj 405 802 random 1000;
#X obj 375 732 * 1000;
#X obj 376 832 >;
#X obj 377 916 bng 15 250 50 0 empty empty empty 17 7 0 10 -262144
-1 -1;
#X obj 377 877 sel 1;
#X obj 445 567 sel 1;
#X obj 193 320 * 0.98;
#X obj 617 408 / 2;
#X obj 515 607 t f f f;
#X obj 444 533 >= 63;
#X obj 617 440 max 1000;
#X connect 0 0 16 0;
#X connect 1 0 8 0;
#X connect 2 0 1 0;
#X connect 3 0 1 0;
#X connect 3 1 1 1;
#X connect 4 0 7 0;
#X connect 5 0 9 0;
#X connect 5 1 4 1;
#X connect 6 0 4 1;
#X connect 7 0 5 0;
#X connect 7 2 4 1;
#X connect 8 0 4 0;
#X connect 9 0 10 0;
#X connect 9 1 10 1;
#X connect 9 2 11 0;
#X connect 9 3 11 1;
#X connect 10 0 12 0;
#X connect 11 0 12 1;
#X connect 12 0 13 0;
#X connect 13 0 14 0;
#X connect 13 0 52 0;
#X connect 15 0 6 0;
#X connect 17 0 3 0;
#X connect 18 0 22 0;
#X connect 19 0 18 0;
#X connect 20 0 21 0;
#X connect 21 0 19 0;
#X connect 22 0 23 1;
#X connect 22 0 25 0;
#X connect 22 0 41 0;
#X connect 22 0 29 0;
#X connect 22 0 51 0;
#X connect 23 0 22 1;
#X connect 24 0 23 0;
#X connect 27 0 24 0;
#X connect 28 0 43 0;
#X connect 29 0 35 0;
#X connect 31 0 32 0;
#X connect 32 0 34 0;
#X connect 32 0 40 0;
#X connect 33 0 36 0;
#X connect 34 0 33 0;
#X connect 35 0 30 0;
#X connect 36 0 53 0;
#X connect 38 0 36 1;
#X connect 39 0 36 1;
#X connect 40 0 38 0;
#X connect 42 0 43 1;
#X connect 43 0 46 0;
#X connect 44 0 47 0;
#X connect 44 1 45 0;
#X connect 45 0 47 1;
#X connect 46 0 44 0;
#X connect 47 0 49 0;
#X connect 49 0 48 0;
#X connect 50 0 38 0;
#X connect 51 0 22 1;
#X connect 52 0 55 0;
#X connect 53 0 28 0;
#X connect 53 0 37 0;
#X connect 53 1 54 0;
#X connect 53 2 39 0;
#X connect 54 0 50 0;
#X connect 55 0 34 1;
#X coords 0 954 1 953 85 60 0;
